<svg xmlns="http://www.w3.org/2000/svg" width="171.195" height="49.183" viewBox="0 0 171.195 49.183">
  <g id="Logo_Tradeteam_-_2020-01" data-name="Logo Tradeteam - 2020-01" transform="translate(-498.7 637.764)">
    <g id="Group_12" data-name="Group 12" transform="translate(498.7 -637.764)">
      <path id="Path_10" data-name="Path 10" d="M74.945,393.37H114.7l-1.142,7.926H98.193l-5.915,41.257h-9.03l6.021-41.46H73.7Z" transform="translate(-73.7 -393.37)" fill="#3460ad"/>
      <path id="Path_11" data-name="Path 11" d="M332.257,393.37h39.749l-1.141,7.926H355.5l-5.916,41.257h-9.029l6.019-41.46H331.01Z" transform="translate(-282.686 -393.37)" fill="#f7941e"/>
      <path id="Path_12" data-name="Path 12" d="M560.944,393.37l-6.954,49.183h8.3l5.915-40.952,9.654,40.952h6.226L605.262,401.4l-5.6,41.156h8.3l7.057-49.183H601.629l-18.474,34.448-8.614-34.448Z" transform="translate(-460.272 -393.37)" fill="#2f8a41"/>
      <path id="Path_13" data-name="Path 13" d="M929.9,393.37a7.156,7.156,0,1,1-7.156,7.156A7.2,7.2,0,0,1,929.9,393.37Zm0,13.138a5.981,5.981,0,1,0-5.981-5.981A6.006,6.006,0,0,0,929.9,406.508Zm1.667-5.05,1.47,3.284h-1.764l-1.322-3.088h-1.471v3.088h-1.716v-8.433h3.53a2.437,2.437,0,0,1,2.746,2.5v.343A2.269,2.269,0,0,1,931.563,401.458Zm-1.619-3.678h-1.471v2.451h1.471c.882,0,1.372-.343,1.372-1.177v-.147C931.318,398.125,930.827,397.781,929.944,397.781Z" transform="translate(-765.859 -393.37)" fill="#2f8a41"/>
    </g>
  </g>
</svg>
